<mxfile host="Electron" agent="Mozilla/5.0 (Windows NT 10.0; Win64; x64) AppleWebKit/537.36 (KHTML, like Gecko) draw.io/26.2.2 Chrome/134.0.6998.178 Electron/35.1.2 Safari/537.36" version="26.2.2">
  <diagram name="Page-1" id="zTpTmjrJExOUVyRAgBnv">
    <mxGraphModel dx="788" dy="516" grid="1" gridSize="10" guides="1" tooltips="1" connect="1" arrows="1" fold="1" page="1" pageScale="1" pageWidth="850" pageHeight="1100" math="0" shadow="0">
      <root>
        <mxCell id="0" />
        <mxCell id="1" parent="0" />
        <mxCell id="Agq0wgSkqwyo6o6x6c_q-1" value="&lt;font&gt;Data Mart&lt;/font&gt;" style="text;html=1;align=center;verticalAlign=middle;whiteSpace=wrap;rounded=0;fontSize=32;fontStyle=1" vertex="1" parent="1">
          <mxGeometry y="20" width="200" height="30" as="geometry" />
        </mxCell>
        <mxCell id="Agq0wgSkqwyo6o6x6c_q-2" value="(Star Schema)" style="text;html=1;align=center;verticalAlign=middle;resizable=0;points=[];autosize=1;strokeColor=none;fillColor=none;fontSize=23;" vertex="1" parent="1">
          <mxGeometry x="170" y="15" width="170" height="40" as="geometry" />
        </mxCell>
        <mxCell id="Agq0wgSkqwyo6o6x6c_q-3" value="gold_dim_customers" style="shape=table;startSize=40;container=1;collapsible=1;childLayout=tableLayout;fixedRows=1;rowLines=0;fontStyle=1;align=center;resizeLast=1;html=1;rounded=1;fillColor=#fff2cc;strokeColor=#d6b656;fontSize=16;" vertex="1" parent="1">
          <mxGeometry x="50" y="120" width="180" height="468" as="geometry" />
        </mxCell>
        <mxCell id="Agq0wgSkqwyo6o6x6c_q-4" value="" style="shape=tableRow;horizontal=0;startSize=0;swimlaneHead=0;swimlaneBody=0;fillColor=none;collapsible=0;dropTarget=0;points=[[0,0.5],[1,0.5]];portConstraint=eastwest;top=0;left=0;right=0;bottom=1;fontSize=16;" vertex="1" parent="Agq0wgSkqwyo6o6x6c_q-3">
          <mxGeometry y="40" width="180" height="50" as="geometry" />
        </mxCell>
        <mxCell id="Agq0wgSkqwyo6o6x6c_q-5" value="PK" style="shape=partialRectangle;connectable=0;fillColor=none;top=0;left=0;bottom=0;right=0;fontStyle=1;overflow=hidden;whiteSpace=wrap;html=1;fontSize=16;" vertex="1" parent="Agq0wgSkqwyo6o6x6c_q-4">
          <mxGeometry width="30" height="50" as="geometry">
            <mxRectangle width="30" height="50" as="alternateBounds" />
          </mxGeometry>
        </mxCell>
        <mxCell id="Agq0wgSkqwyo6o6x6c_q-6" value="customer_key" style="shape=partialRectangle;connectable=0;fillColor=none;top=0;left=0;bottom=0;right=0;align=left;spacingLeft=6;fontStyle=5;overflow=hidden;whiteSpace=wrap;html=1;fontSize=16;" vertex="1" parent="Agq0wgSkqwyo6o6x6c_q-4">
          <mxGeometry x="30" width="150" height="50" as="geometry">
            <mxRectangle width="150" height="50" as="alternateBounds" />
          </mxGeometry>
        </mxCell>
        <mxCell id="Agq0wgSkqwyo6o6x6c_q-7" value="" style="shape=tableRow;horizontal=0;startSize=0;swimlaneHead=0;swimlaneBody=0;fillColor=none;collapsible=0;dropTarget=0;points=[[0,0.5],[1,0.5]];portConstraint=eastwest;top=0;left=0;right=0;bottom=0;fontSize=16;" vertex="1" parent="Agq0wgSkqwyo6o6x6c_q-3">
          <mxGeometry y="90" width="180" height="42" as="geometry" />
        </mxCell>
        <mxCell id="Agq0wgSkqwyo6o6x6c_q-8" value="" style="shape=partialRectangle;connectable=0;fillColor=none;top=0;left=0;bottom=0;right=0;editable=1;overflow=hidden;whiteSpace=wrap;html=1;fontSize=16;" vertex="1" parent="Agq0wgSkqwyo6o6x6c_q-7">
          <mxGeometry width="30" height="42" as="geometry">
            <mxRectangle width="30" height="42" as="alternateBounds" />
          </mxGeometry>
        </mxCell>
        <mxCell id="Agq0wgSkqwyo6o6x6c_q-9" value="customer_id" style="shape=partialRectangle;connectable=0;fillColor=none;top=0;left=0;bottom=0;right=0;align=left;spacingLeft=6;overflow=hidden;whiteSpace=wrap;html=1;fontSize=16;" vertex="1" parent="Agq0wgSkqwyo6o6x6c_q-7">
          <mxGeometry x="30" width="150" height="42" as="geometry">
            <mxRectangle width="150" height="42" as="alternateBounds" />
          </mxGeometry>
        </mxCell>
        <mxCell id="Agq0wgSkqwyo6o6x6c_q-10" value="" style="shape=tableRow;horizontal=0;startSize=0;swimlaneHead=0;swimlaneBody=0;fillColor=none;collapsible=0;dropTarget=0;points=[[0,0.5],[1,0.5]];portConstraint=eastwest;top=0;left=0;right=0;bottom=0;fontSize=16;" vertex="1" parent="Agq0wgSkqwyo6o6x6c_q-3">
          <mxGeometry y="132" width="180" height="42" as="geometry" />
        </mxCell>
        <mxCell id="Agq0wgSkqwyo6o6x6c_q-11" value="" style="shape=partialRectangle;connectable=0;fillColor=none;top=0;left=0;bottom=0;right=0;editable=1;overflow=hidden;whiteSpace=wrap;html=1;fontSize=16;" vertex="1" parent="Agq0wgSkqwyo6o6x6c_q-10">
          <mxGeometry width="30" height="42" as="geometry">
            <mxRectangle width="30" height="42" as="alternateBounds" />
          </mxGeometry>
        </mxCell>
        <mxCell id="Agq0wgSkqwyo6o6x6c_q-12" value="customer_number" style="shape=partialRectangle;connectable=0;fillColor=none;top=0;left=0;bottom=0;right=0;align=left;spacingLeft=6;overflow=hidden;whiteSpace=wrap;html=1;fontSize=16;" vertex="1" parent="Agq0wgSkqwyo6o6x6c_q-10">
          <mxGeometry x="30" width="150" height="42" as="geometry">
            <mxRectangle width="150" height="42" as="alternateBounds" />
          </mxGeometry>
        </mxCell>
        <mxCell id="Agq0wgSkqwyo6o6x6c_q-13" value="" style="shape=tableRow;horizontal=0;startSize=0;swimlaneHead=0;swimlaneBody=0;fillColor=none;collapsible=0;dropTarget=0;points=[[0,0.5],[1,0.5]];portConstraint=eastwest;top=0;left=0;right=0;bottom=0;fontSize=16;" vertex="1" parent="Agq0wgSkqwyo6o6x6c_q-3">
          <mxGeometry y="174" width="180" height="42" as="geometry" />
        </mxCell>
        <mxCell id="Agq0wgSkqwyo6o6x6c_q-14" value="" style="shape=partialRectangle;connectable=0;fillColor=none;top=0;left=0;bottom=0;right=0;editable=1;overflow=hidden;whiteSpace=wrap;html=1;fontSize=16;" vertex="1" parent="Agq0wgSkqwyo6o6x6c_q-13">
          <mxGeometry width="30" height="42" as="geometry">
            <mxRectangle width="30" height="42" as="alternateBounds" />
          </mxGeometry>
        </mxCell>
        <mxCell id="Agq0wgSkqwyo6o6x6c_q-15" value="first_name" style="shape=partialRectangle;connectable=0;fillColor=none;top=0;left=0;bottom=0;right=0;align=left;spacingLeft=6;overflow=hidden;whiteSpace=wrap;html=1;fontSize=16;" vertex="1" parent="Agq0wgSkqwyo6o6x6c_q-13">
          <mxGeometry x="30" width="150" height="42" as="geometry">
            <mxRectangle width="150" height="42" as="alternateBounds" />
          </mxGeometry>
        </mxCell>
        <mxCell id="Agq0wgSkqwyo6o6x6c_q-16" value="" style="shape=tableRow;horizontal=0;startSize=0;swimlaneHead=0;swimlaneBody=0;fillColor=none;collapsible=0;dropTarget=0;points=[[0,0.5],[1,0.5]];portConstraint=eastwest;top=0;left=0;right=0;bottom=0;fontSize=16;" vertex="1" parent="Agq0wgSkqwyo6o6x6c_q-3">
          <mxGeometry y="216" width="180" height="42" as="geometry" />
        </mxCell>
        <mxCell id="Agq0wgSkqwyo6o6x6c_q-17" value="" style="shape=partialRectangle;connectable=0;fillColor=none;top=0;left=0;bottom=0;right=0;editable=1;overflow=hidden;whiteSpace=wrap;html=1;fontSize=16;" vertex="1" parent="Agq0wgSkqwyo6o6x6c_q-16">
          <mxGeometry width="30" height="42" as="geometry">
            <mxRectangle width="30" height="42" as="alternateBounds" />
          </mxGeometry>
        </mxCell>
        <mxCell id="Agq0wgSkqwyo6o6x6c_q-18" value="last_name" style="shape=partialRectangle;connectable=0;fillColor=none;top=0;left=0;bottom=0;right=0;align=left;spacingLeft=6;overflow=hidden;whiteSpace=wrap;html=1;fontSize=16;" vertex="1" parent="Agq0wgSkqwyo6o6x6c_q-16">
          <mxGeometry x="30" width="150" height="42" as="geometry">
            <mxRectangle width="150" height="42" as="alternateBounds" />
          </mxGeometry>
        </mxCell>
        <mxCell id="Agq0wgSkqwyo6o6x6c_q-19" value="" style="shape=tableRow;horizontal=0;startSize=0;swimlaneHead=0;swimlaneBody=0;fillColor=none;collapsible=0;dropTarget=0;points=[[0,0.5],[1,0.5]];portConstraint=eastwest;top=0;left=0;right=0;bottom=0;fontSize=16;" vertex="1" parent="Agq0wgSkqwyo6o6x6c_q-3">
          <mxGeometry y="258" width="180" height="42" as="geometry" />
        </mxCell>
        <mxCell id="Agq0wgSkqwyo6o6x6c_q-20" value="" style="shape=partialRectangle;connectable=0;fillColor=none;top=0;left=0;bottom=0;right=0;editable=1;overflow=hidden;whiteSpace=wrap;html=1;fontSize=16;" vertex="1" parent="Agq0wgSkqwyo6o6x6c_q-19">
          <mxGeometry width="30" height="42" as="geometry">
            <mxRectangle width="30" height="42" as="alternateBounds" />
          </mxGeometry>
        </mxCell>
        <mxCell id="Agq0wgSkqwyo6o6x6c_q-21" value="country" style="shape=partialRectangle;connectable=0;fillColor=none;top=0;left=0;bottom=0;right=0;align=left;spacingLeft=6;overflow=hidden;whiteSpace=wrap;html=1;fontSize=16;" vertex="1" parent="Agq0wgSkqwyo6o6x6c_q-19">
          <mxGeometry x="30" width="150" height="42" as="geometry">
            <mxRectangle width="150" height="42" as="alternateBounds" />
          </mxGeometry>
        </mxCell>
        <mxCell id="Agq0wgSkqwyo6o6x6c_q-22" value="" style="shape=tableRow;horizontal=0;startSize=0;swimlaneHead=0;swimlaneBody=0;fillColor=none;collapsible=0;dropTarget=0;points=[[0,0.5],[1,0.5]];portConstraint=eastwest;top=0;left=0;right=0;bottom=0;fontSize=16;" vertex="1" parent="Agq0wgSkqwyo6o6x6c_q-3">
          <mxGeometry y="300" width="180" height="42" as="geometry" />
        </mxCell>
        <mxCell id="Agq0wgSkqwyo6o6x6c_q-23" value="" style="shape=partialRectangle;connectable=0;fillColor=none;top=0;left=0;bottom=0;right=0;editable=1;overflow=hidden;whiteSpace=wrap;html=1;fontSize=16;" vertex="1" parent="Agq0wgSkqwyo6o6x6c_q-22">
          <mxGeometry width="30" height="42" as="geometry">
            <mxRectangle width="30" height="42" as="alternateBounds" />
          </mxGeometry>
        </mxCell>
        <mxCell id="Agq0wgSkqwyo6o6x6c_q-24" value="marital_status" style="shape=partialRectangle;connectable=0;fillColor=none;top=0;left=0;bottom=0;right=0;align=left;spacingLeft=6;overflow=hidden;whiteSpace=wrap;html=1;fontSize=16;" vertex="1" parent="Agq0wgSkqwyo6o6x6c_q-22">
          <mxGeometry x="30" width="150" height="42" as="geometry">
            <mxRectangle width="150" height="42" as="alternateBounds" />
          </mxGeometry>
        </mxCell>
        <mxCell id="Agq0wgSkqwyo6o6x6c_q-25" value="" style="shape=tableRow;horizontal=0;startSize=0;swimlaneHead=0;swimlaneBody=0;fillColor=none;collapsible=0;dropTarget=0;points=[[0,0.5],[1,0.5]];portConstraint=eastwest;top=0;left=0;right=0;bottom=0;fontSize=16;" vertex="1" parent="Agq0wgSkqwyo6o6x6c_q-3">
          <mxGeometry y="342" width="180" height="42" as="geometry" />
        </mxCell>
        <mxCell id="Agq0wgSkqwyo6o6x6c_q-26" value="" style="shape=partialRectangle;connectable=0;fillColor=none;top=0;left=0;bottom=0;right=0;editable=1;overflow=hidden;whiteSpace=wrap;html=1;fontSize=16;" vertex="1" parent="Agq0wgSkqwyo6o6x6c_q-25">
          <mxGeometry width="30" height="42" as="geometry">
            <mxRectangle width="30" height="42" as="alternateBounds" />
          </mxGeometry>
        </mxCell>
        <mxCell id="Agq0wgSkqwyo6o6x6c_q-27" value="gender" style="shape=partialRectangle;connectable=0;fillColor=none;top=0;left=0;bottom=0;right=0;align=left;spacingLeft=6;overflow=hidden;whiteSpace=wrap;html=1;fontSize=16;" vertex="1" parent="Agq0wgSkqwyo6o6x6c_q-25">
          <mxGeometry x="30" width="150" height="42" as="geometry">
            <mxRectangle width="150" height="42" as="alternateBounds" />
          </mxGeometry>
        </mxCell>
        <mxCell id="Agq0wgSkqwyo6o6x6c_q-28" value="" style="shape=tableRow;horizontal=0;startSize=0;swimlaneHead=0;swimlaneBody=0;fillColor=none;collapsible=0;dropTarget=0;points=[[0,0.5],[1,0.5]];portConstraint=eastwest;top=0;left=0;right=0;bottom=0;fontSize=16;" vertex="1" parent="Agq0wgSkqwyo6o6x6c_q-3">
          <mxGeometry y="384" width="180" height="42" as="geometry" />
        </mxCell>
        <mxCell id="Agq0wgSkqwyo6o6x6c_q-29" value="" style="shape=partialRectangle;connectable=0;fillColor=none;top=0;left=0;bottom=0;right=0;editable=1;overflow=hidden;whiteSpace=wrap;html=1;fontSize=16;" vertex="1" parent="Agq0wgSkqwyo6o6x6c_q-28">
          <mxGeometry width="30" height="42" as="geometry">
            <mxRectangle width="30" height="42" as="alternateBounds" />
          </mxGeometry>
        </mxCell>
        <mxCell id="Agq0wgSkqwyo6o6x6c_q-30" value="birthdate" style="shape=partialRectangle;connectable=0;fillColor=none;top=0;left=0;bottom=0;right=0;align=left;spacingLeft=6;overflow=hidden;whiteSpace=wrap;html=1;fontSize=16;" vertex="1" parent="Agq0wgSkqwyo6o6x6c_q-28">
          <mxGeometry x="30" width="150" height="42" as="geometry">
            <mxRectangle width="150" height="42" as="alternateBounds" />
          </mxGeometry>
        </mxCell>
        <mxCell id="Agq0wgSkqwyo6o6x6c_q-31" value="" style="shape=tableRow;horizontal=0;startSize=0;swimlaneHead=0;swimlaneBody=0;fillColor=none;collapsible=0;dropTarget=0;points=[[0,0.5],[1,0.5]];portConstraint=eastwest;top=0;left=0;right=0;bottom=0;fontSize=16;" vertex="1" parent="Agq0wgSkqwyo6o6x6c_q-3">
          <mxGeometry y="426" width="180" height="42" as="geometry" />
        </mxCell>
        <mxCell id="Agq0wgSkqwyo6o6x6c_q-32" value="" style="shape=partialRectangle;connectable=0;fillColor=none;top=0;left=0;bottom=0;right=0;editable=1;overflow=hidden;whiteSpace=wrap;html=1;fontSize=16;" vertex="1" parent="Agq0wgSkqwyo6o6x6c_q-31">
          <mxGeometry width="30" height="42" as="geometry">
            <mxRectangle width="30" height="42" as="alternateBounds" />
          </mxGeometry>
        </mxCell>
        <mxCell id="Agq0wgSkqwyo6o6x6c_q-33" value="country" style="shape=partialRectangle;connectable=0;fillColor=none;top=0;left=0;bottom=0;right=0;align=left;spacingLeft=6;overflow=hidden;whiteSpace=wrap;html=1;fontSize=16;" vertex="1" parent="Agq0wgSkqwyo6o6x6c_q-31">
          <mxGeometry x="30" width="150" height="42" as="geometry">
            <mxRectangle width="150" height="42" as="alternateBounds" />
          </mxGeometry>
        </mxCell>
        <mxCell id="Agq0wgSkqwyo6o6x6c_q-34" value="gold_fact_sales" style="shape=table;startSize=40;container=1;collapsible=1;childLayout=tableLayout;fixedRows=1;rowLines=0;fontStyle=1;align=center;resizeLast=1;html=1;rounded=1;fillColor=#dae8fc;strokeColor=#6c8ebf;fontSize=16;" vertex="1" parent="1">
          <mxGeometry x="340" y="120" width="180" height="418" as="geometry" />
        </mxCell>
        <mxCell id="Agq0wgSkqwyo6o6x6c_q-38" value="" style="shape=tableRow;horizontal=0;startSize=0;swimlaneHead=0;swimlaneBody=0;fillColor=none;collapsible=0;dropTarget=0;points=[[0,0.5],[1,0.5]];portConstraint=eastwest;top=0;left=0;right=0;bottom=0;fontSize=16;" vertex="1" parent="Agq0wgSkqwyo6o6x6c_q-34">
          <mxGeometry y="40" width="180" height="42" as="geometry" />
        </mxCell>
        <mxCell id="Agq0wgSkqwyo6o6x6c_q-39" value="" style="shape=partialRectangle;connectable=0;fillColor=none;top=0;left=0;bottom=0;right=0;editable=1;overflow=hidden;whiteSpace=wrap;html=1;fontSize=16;" vertex="1" parent="Agq0wgSkqwyo6o6x6c_q-38">
          <mxGeometry width="40" height="42" as="geometry">
            <mxRectangle width="40" height="42" as="alternateBounds" />
          </mxGeometry>
        </mxCell>
        <mxCell id="Agq0wgSkqwyo6o6x6c_q-40" value="order_number" style="shape=partialRectangle;connectable=0;fillColor=none;top=0;left=0;bottom=0;right=0;align=left;spacingLeft=6;overflow=hidden;whiteSpace=wrap;html=1;fontSize=16;" vertex="1" parent="Agq0wgSkqwyo6o6x6c_q-38">
          <mxGeometry x="40" width="140" height="42" as="geometry">
            <mxRectangle width="140" height="42" as="alternateBounds" />
          </mxGeometry>
        </mxCell>
        <mxCell id="Agq0wgSkqwyo6o6x6c_q-41" value="" style="shape=tableRow;horizontal=0;startSize=0;swimlaneHead=0;swimlaneBody=0;fillColor=none;collapsible=0;dropTarget=0;points=[[0,0.5],[1,0.5]];portConstraint=eastwest;top=0;left=0;right=0;bottom=0;fontSize=16;" vertex="1" parent="Agq0wgSkqwyo6o6x6c_q-34">
          <mxGeometry y="82" width="180" height="42" as="geometry" />
        </mxCell>
        <mxCell id="Agq0wgSkqwyo6o6x6c_q-42" value="&lt;font style=&quot;font-size: 15px;&quot;&gt;FK1&lt;/font&gt;" style="shape=partialRectangle;connectable=0;fillColor=none;top=0;left=0;bottom=0;right=0;editable=1;overflow=hidden;whiteSpace=wrap;html=1;fontSize=16;" vertex="1" parent="Agq0wgSkqwyo6o6x6c_q-41">
          <mxGeometry width="40" height="42" as="geometry">
            <mxRectangle width="40" height="42" as="alternateBounds" />
          </mxGeometry>
        </mxCell>
        <mxCell id="Agq0wgSkqwyo6o6x6c_q-43" value="product_key" style="shape=partialRectangle;connectable=0;fillColor=none;top=0;left=0;bottom=0;right=0;align=left;spacingLeft=6;overflow=hidden;whiteSpace=wrap;html=1;fontSize=16;" vertex="1" parent="Agq0wgSkqwyo6o6x6c_q-41">
          <mxGeometry x="40" width="140" height="42" as="geometry">
            <mxRectangle width="140" height="42" as="alternateBounds" />
          </mxGeometry>
        </mxCell>
        <mxCell id="Agq0wgSkqwyo6o6x6c_q-44" value="" style="shape=tableRow;horizontal=0;startSize=0;swimlaneHead=0;swimlaneBody=0;fillColor=none;collapsible=0;dropTarget=0;points=[[0,0.5],[1,0.5]];portConstraint=eastwest;top=0;left=0;right=0;bottom=0;fontSize=16;" vertex="1" parent="Agq0wgSkqwyo6o6x6c_q-34">
          <mxGeometry y="124" width="180" height="42" as="geometry" />
        </mxCell>
        <mxCell id="Agq0wgSkqwyo6o6x6c_q-45" value="&lt;font style=&quot;font-size: 15px;&quot;&gt;FK2&lt;/font&gt;" style="shape=partialRectangle;connectable=0;fillColor=none;top=0;left=0;bottom=0;right=0;editable=1;overflow=hidden;whiteSpace=wrap;html=1;fontSize=16;" vertex="1" parent="Agq0wgSkqwyo6o6x6c_q-44">
          <mxGeometry width="40" height="42" as="geometry">
            <mxRectangle width="40" height="42" as="alternateBounds" />
          </mxGeometry>
        </mxCell>
        <mxCell id="Agq0wgSkqwyo6o6x6c_q-46" value="customer_key" style="shape=partialRectangle;connectable=0;fillColor=none;top=0;left=0;bottom=0;right=0;align=left;spacingLeft=6;overflow=hidden;whiteSpace=wrap;html=1;fontSize=16;" vertex="1" parent="Agq0wgSkqwyo6o6x6c_q-44">
          <mxGeometry x="40" width="140" height="42" as="geometry">
            <mxRectangle width="140" height="42" as="alternateBounds" />
          </mxGeometry>
        </mxCell>
        <mxCell id="Agq0wgSkqwyo6o6x6c_q-47" value="" style="shape=tableRow;horizontal=0;startSize=0;swimlaneHead=0;swimlaneBody=0;fillColor=none;collapsible=0;dropTarget=0;points=[[0,0.5],[1,0.5]];portConstraint=eastwest;top=0;left=0;right=0;bottom=0;fontSize=16;" vertex="1" parent="Agq0wgSkqwyo6o6x6c_q-34">
          <mxGeometry y="166" width="180" height="42" as="geometry" />
        </mxCell>
        <mxCell id="Agq0wgSkqwyo6o6x6c_q-48" value="" style="shape=partialRectangle;connectable=0;fillColor=none;top=0;left=0;bottom=0;right=0;editable=1;overflow=hidden;whiteSpace=wrap;html=1;fontSize=16;" vertex="1" parent="Agq0wgSkqwyo6o6x6c_q-47">
          <mxGeometry width="40" height="42" as="geometry">
            <mxRectangle width="40" height="42" as="alternateBounds" />
          </mxGeometry>
        </mxCell>
        <mxCell id="Agq0wgSkqwyo6o6x6c_q-49" value="order_date" style="shape=partialRectangle;connectable=0;fillColor=none;top=0;left=0;bottom=0;right=0;align=left;spacingLeft=6;overflow=hidden;whiteSpace=wrap;html=1;fontSize=16;" vertex="1" parent="Agq0wgSkqwyo6o6x6c_q-47">
          <mxGeometry x="40" width="140" height="42" as="geometry">
            <mxRectangle width="140" height="42" as="alternateBounds" />
          </mxGeometry>
        </mxCell>
        <mxCell id="Agq0wgSkqwyo6o6x6c_q-50" value="" style="shape=tableRow;horizontal=0;startSize=0;swimlaneHead=0;swimlaneBody=0;fillColor=none;collapsible=0;dropTarget=0;points=[[0,0.5],[1,0.5]];portConstraint=eastwest;top=0;left=0;right=0;bottom=0;fontSize=16;" vertex="1" parent="Agq0wgSkqwyo6o6x6c_q-34">
          <mxGeometry y="208" width="180" height="42" as="geometry" />
        </mxCell>
        <mxCell id="Agq0wgSkqwyo6o6x6c_q-51" value="" style="shape=partialRectangle;connectable=0;fillColor=none;top=0;left=0;bottom=0;right=0;editable=1;overflow=hidden;whiteSpace=wrap;html=1;fontSize=16;" vertex="1" parent="Agq0wgSkqwyo6o6x6c_q-50">
          <mxGeometry width="40" height="42" as="geometry">
            <mxRectangle width="40" height="42" as="alternateBounds" />
          </mxGeometry>
        </mxCell>
        <mxCell id="Agq0wgSkqwyo6o6x6c_q-52" value="shipping_date" style="shape=partialRectangle;connectable=0;fillColor=none;top=0;left=0;bottom=0;right=0;align=left;spacingLeft=6;overflow=hidden;whiteSpace=wrap;html=1;fontSize=16;" vertex="1" parent="Agq0wgSkqwyo6o6x6c_q-50">
          <mxGeometry x="40" width="140" height="42" as="geometry">
            <mxRectangle width="140" height="42" as="alternateBounds" />
          </mxGeometry>
        </mxCell>
        <mxCell id="Agq0wgSkqwyo6o6x6c_q-53" value="" style="shape=tableRow;horizontal=0;startSize=0;swimlaneHead=0;swimlaneBody=0;fillColor=none;collapsible=0;dropTarget=0;points=[[0,0.5],[1,0.5]];portConstraint=eastwest;top=0;left=0;right=0;bottom=0;fontSize=16;" vertex="1" parent="Agq0wgSkqwyo6o6x6c_q-34">
          <mxGeometry y="250" width="180" height="42" as="geometry" />
        </mxCell>
        <mxCell id="Agq0wgSkqwyo6o6x6c_q-54" value="" style="shape=partialRectangle;connectable=0;fillColor=none;top=0;left=0;bottom=0;right=0;editable=1;overflow=hidden;whiteSpace=wrap;html=1;fontSize=16;" vertex="1" parent="Agq0wgSkqwyo6o6x6c_q-53">
          <mxGeometry width="40" height="42" as="geometry">
            <mxRectangle width="40" height="42" as="alternateBounds" />
          </mxGeometry>
        </mxCell>
        <mxCell id="Agq0wgSkqwyo6o6x6c_q-55" value="due_date" style="shape=partialRectangle;connectable=0;fillColor=none;top=0;left=0;bottom=0;right=0;align=left;spacingLeft=6;overflow=hidden;whiteSpace=wrap;html=1;fontSize=16;" vertex="1" parent="Agq0wgSkqwyo6o6x6c_q-53">
          <mxGeometry x="40" width="140" height="42" as="geometry">
            <mxRectangle width="140" height="42" as="alternateBounds" />
          </mxGeometry>
        </mxCell>
        <mxCell id="Agq0wgSkqwyo6o6x6c_q-56" value="" style="shape=tableRow;horizontal=0;startSize=0;swimlaneHead=0;swimlaneBody=0;fillColor=none;collapsible=0;dropTarget=0;points=[[0,0.5],[1,0.5]];portConstraint=eastwest;top=0;left=0;right=0;bottom=0;fontSize=16;" vertex="1" parent="Agq0wgSkqwyo6o6x6c_q-34">
          <mxGeometry y="292" width="180" height="42" as="geometry" />
        </mxCell>
        <mxCell id="Agq0wgSkqwyo6o6x6c_q-57" value="" style="shape=partialRectangle;connectable=0;fillColor=none;top=0;left=0;bottom=0;right=0;editable=1;overflow=hidden;whiteSpace=wrap;html=1;fontSize=16;" vertex="1" parent="Agq0wgSkqwyo6o6x6c_q-56">
          <mxGeometry width="40" height="42" as="geometry">
            <mxRectangle width="40" height="42" as="alternateBounds" />
          </mxGeometry>
        </mxCell>
        <mxCell id="Agq0wgSkqwyo6o6x6c_q-58" value="sales_amount" style="shape=partialRectangle;connectable=0;fillColor=none;top=0;left=0;bottom=0;right=0;align=left;spacingLeft=6;overflow=hidden;whiteSpace=wrap;html=1;fontSize=16;" vertex="1" parent="Agq0wgSkqwyo6o6x6c_q-56">
          <mxGeometry x="40" width="140" height="42" as="geometry">
            <mxRectangle width="140" height="42" as="alternateBounds" />
          </mxGeometry>
        </mxCell>
        <mxCell id="Agq0wgSkqwyo6o6x6c_q-59" value="" style="shape=tableRow;horizontal=0;startSize=0;swimlaneHead=0;swimlaneBody=0;fillColor=none;collapsible=0;dropTarget=0;points=[[0,0.5],[1,0.5]];portConstraint=eastwest;top=0;left=0;right=0;bottom=0;fontSize=16;" vertex="1" parent="Agq0wgSkqwyo6o6x6c_q-34">
          <mxGeometry y="334" width="180" height="42" as="geometry" />
        </mxCell>
        <mxCell id="Agq0wgSkqwyo6o6x6c_q-60" value="" style="shape=partialRectangle;connectable=0;fillColor=none;top=0;left=0;bottom=0;right=0;editable=1;overflow=hidden;whiteSpace=wrap;html=1;fontSize=16;" vertex="1" parent="Agq0wgSkqwyo6o6x6c_q-59">
          <mxGeometry width="40" height="42" as="geometry">
            <mxRectangle width="40" height="42" as="alternateBounds" />
          </mxGeometry>
        </mxCell>
        <mxCell id="Agq0wgSkqwyo6o6x6c_q-61" value="quantity" style="shape=partialRectangle;connectable=0;fillColor=none;top=0;left=0;bottom=0;right=0;align=left;spacingLeft=6;overflow=hidden;whiteSpace=wrap;html=1;fontSize=16;" vertex="1" parent="Agq0wgSkqwyo6o6x6c_q-59">
          <mxGeometry x="40" width="140" height="42" as="geometry">
            <mxRectangle width="140" height="42" as="alternateBounds" />
          </mxGeometry>
        </mxCell>
        <mxCell id="Agq0wgSkqwyo6o6x6c_q-62" value="" style="shape=tableRow;horizontal=0;startSize=0;swimlaneHead=0;swimlaneBody=0;fillColor=none;collapsible=0;dropTarget=0;points=[[0,0.5],[1,0.5]];portConstraint=eastwest;top=0;left=0;right=0;bottom=0;fontSize=16;" vertex="1" parent="Agq0wgSkqwyo6o6x6c_q-34">
          <mxGeometry y="376" width="180" height="42" as="geometry" />
        </mxCell>
        <mxCell id="Agq0wgSkqwyo6o6x6c_q-63" value="" style="shape=partialRectangle;connectable=0;fillColor=none;top=0;left=0;bottom=0;right=0;editable=1;overflow=hidden;whiteSpace=wrap;html=1;fontSize=16;" vertex="1" parent="Agq0wgSkqwyo6o6x6c_q-62">
          <mxGeometry width="40" height="42" as="geometry">
            <mxRectangle width="40" height="42" as="alternateBounds" />
          </mxGeometry>
        </mxCell>
        <mxCell id="Agq0wgSkqwyo6o6x6c_q-64" value="price" style="shape=partialRectangle;connectable=0;fillColor=none;top=0;left=0;bottom=0;right=0;align=left;spacingLeft=6;overflow=hidden;whiteSpace=wrap;html=1;fontSize=16;" vertex="1" parent="Agq0wgSkqwyo6o6x6c_q-62">
          <mxGeometry x="40" width="140" height="42" as="geometry">
            <mxRectangle width="140" height="42" as="alternateBounds" />
          </mxGeometry>
        </mxCell>
        <mxCell id="Agq0wgSkqwyo6o6x6c_q-68" value="gold_dim_products" style="shape=table;startSize=40;container=1;collapsible=1;childLayout=tableLayout;fixedRows=1;rowLines=0;fontStyle=1;align=center;resizeLast=1;html=1;rounded=1;fillColor=#fff2cc;strokeColor=#d6b656;fontSize=16;" vertex="1" parent="1">
          <mxGeometry x="630" y="120" width="180" height="510" as="geometry" />
        </mxCell>
        <mxCell id="Agq0wgSkqwyo6o6x6c_q-69" value="" style="shape=tableRow;horizontal=0;startSize=0;swimlaneHead=0;swimlaneBody=0;fillColor=none;collapsible=0;dropTarget=0;points=[[0,0.5],[1,0.5]];portConstraint=eastwest;top=0;left=0;right=0;bottom=1;fontSize=16;" vertex="1" parent="Agq0wgSkqwyo6o6x6c_q-68">
          <mxGeometry y="40" width="180" height="50" as="geometry" />
        </mxCell>
        <mxCell id="Agq0wgSkqwyo6o6x6c_q-70" value="PK" style="shape=partialRectangle;connectable=0;fillColor=none;top=0;left=0;bottom=0;right=0;fontStyle=1;overflow=hidden;whiteSpace=wrap;html=1;fontSize=16;" vertex="1" parent="Agq0wgSkqwyo6o6x6c_q-69">
          <mxGeometry width="30" height="50" as="geometry">
            <mxRectangle width="30" height="50" as="alternateBounds" />
          </mxGeometry>
        </mxCell>
        <mxCell id="Agq0wgSkqwyo6o6x6c_q-71" value="product_key" style="shape=partialRectangle;connectable=0;fillColor=none;top=0;left=0;bottom=0;right=0;align=left;spacingLeft=6;fontStyle=5;overflow=hidden;whiteSpace=wrap;html=1;fontSize=16;" vertex="1" parent="Agq0wgSkqwyo6o6x6c_q-69">
          <mxGeometry x="30" width="150" height="50" as="geometry">
            <mxRectangle width="150" height="50" as="alternateBounds" />
          </mxGeometry>
        </mxCell>
        <mxCell id="Agq0wgSkqwyo6o6x6c_q-72" value="" style="shape=tableRow;horizontal=0;startSize=0;swimlaneHead=0;swimlaneBody=0;fillColor=none;collapsible=0;dropTarget=0;points=[[0,0.5],[1,0.5]];portConstraint=eastwest;top=0;left=0;right=0;bottom=0;fontSize=16;" vertex="1" parent="Agq0wgSkqwyo6o6x6c_q-68">
          <mxGeometry y="90" width="180" height="42" as="geometry" />
        </mxCell>
        <mxCell id="Agq0wgSkqwyo6o6x6c_q-73" value="" style="shape=partialRectangle;connectable=0;fillColor=none;top=0;left=0;bottom=0;right=0;editable=1;overflow=hidden;whiteSpace=wrap;html=1;fontSize=16;" vertex="1" parent="Agq0wgSkqwyo6o6x6c_q-72">
          <mxGeometry width="30" height="42" as="geometry">
            <mxRectangle width="30" height="42" as="alternateBounds" />
          </mxGeometry>
        </mxCell>
        <mxCell id="Agq0wgSkqwyo6o6x6c_q-74" value="product_id" style="shape=partialRectangle;connectable=0;fillColor=none;top=0;left=0;bottom=0;right=0;align=left;spacingLeft=6;overflow=hidden;whiteSpace=wrap;html=1;fontSize=16;" vertex="1" parent="Agq0wgSkqwyo6o6x6c_q-72">
          <mxGeometry x="30" width="150" height="42" as="geometry">
            <mxRectangle width="150" height="42" as="alternateBounds" />
          </mxGeometry>
        </mxCell>
        <mxCell id="Agq0wgSkqwyo6o6x6c_q-75" value="" style="shape=tableRow;horizontal=0;startSize=0;swimlaneHead=0;swimlaneBody=0;fillColor=none;collapsible=0;dropTarget=0;points=[[0,0.5],[1,0.5]];portConstraint=eastwest;top=0;left=0;right=0;bottom=0;fontSize=16;" vertex="1" parent="Agq0wgSkqwyo6o6x6c_q-68">
          <mxGeometry y="132" width="180" height="42" as="geometry" />
        </mxCell>
        <mxCell id="Agq0wgSkqwyo6o6x6c_q-76" value="" style="shape=partialRectangle;connectable=0;fillColor=none;top=0;left=0;bottom=0;right=0;editable=1;overflow=hidden;whiteSpace=wrap;html=1;fontSize=16;" vertex="1" parent="Agq0wgSkqwyo6o6x6c_q-75">
          <mxGeometry width="30" height="42" as="geometry">
            <mxRectangle width="30" height="42" as="alternateBounds" />
          </mxGeometry>
        </mxCell>
        <mxCell id="Agq0wgSkqwyo6o6x6c_q-77" value="product_number" style="shape=partialRectangle;connectable=0;fillColor=none;top=0;left=0;bottom=0;right=0;align=left;spacingLeft=6;overflow=hidden;whiteSpace=wrap;html=1;fontSize=16;" vertex="1" parent="Agq0wgSkqwyo6o6x6c_q-75">
          <mxGeometry x="30" width="150" height="42" as="geometry">
            <mxRectangle width="150" height="42" as="alternateBounds" />
          </mxGeometry>
        </mxCell>
        <mxCell id="Agq0wgSkqwyo6o6x6c_q-78" value="" style="shape=tableRow;horizontal=0;startSize=0;swimlaneHead=0;swimlaneBody=0;fillColor=none;collapsible=0;dropTarget=0;points=[[0,0.5],[1,0.5]];portConstraint=eastwest;top=0;left=0;right=0;bottom=0;fontSize=16;" vertex="1" parent="Agq0wgSkqwyo6o6x6c_q-68">
          <mxGeometry y="174" width="180" height="42" as="geometry" />
        </mxCell>
        <mxCell id="Agq0wgSkqwyo6o6x6c_q-79" value="" style="shape=partialRectangle;connectable=0;fillColor=none;top=0;left=0;bottom=0;right=0;editable=1;overflow=hidden;whiteSpace=wrap;html=1;fontSize=16;" vertex="1" parent="Agq0wgSkqwyo6o6x6c_q-78">
          <mxGeometry width="30" height="42" as="geometry">
            <mxRectangle width="30" height="42" as="alternateBounds" />
          </mxGeometry>
        </mxCell>
        <mxCell id="Agq0wgSkqwyo6o6x6c_q-80" value="product_name" style="shape=partialRectangle;connectable=0;fillColor=none;top=0;left=0;bottom=0;right=0;align=left;spacingLeft=6;overflow=hidden;whiteSpace=wrap;html=1;fontSize=16;" vertex="1" parent="Agq0wgSkqwyo6o6x6c_q-78">
          <mxGeometry x="30" width="150" height="42" as="geometry">
            <mxRectangle width="150" height="42" as="alternateBounds" />
          </mxGeometry>
        </mxCell>
        <mxCell id="Agq0wgSkqwyo6o6x6c_q-81" value="" style="shape=tableRow;horizontal=0;startSize=0;swimlaneHead=0;swimlaneBody=0;fillColor=none;collapsible=0;dropTarget=0;points=[[0,0.5],[1,0.5]];portConstraint=eastwest;top=0;left=0;right=0;bottom=0;fontSize=16;" vertex="1" parent="Agq0wgSkqwyo6o6x6c_q-68">
          <mxGeometry y="216" width="180" height="42" as="geometry" />
        </mxCell>
        <mxCell id="Agq0wgSkqwyo6o6x6c_q-82" value="" style="shape=partialRectangle;connectable=0;fillColor=none;top=0;left=0;bottom=0;right=0;editable=1;overflow=hidden;whiteSpace=wrap;html=1;fontSize=16;" vertex="1" parent="Agq0wgSkqwyo6o6x6c_q-81">
          <mxGeometry width="30" height="42" as="geometry">
            <mxRectangle width="30" height="42" as="alternateBounds" />
          </mxGeometry>
        </mxCell>
        <mxCell id="Agq0wgSkqwyo6o6x6c_q-83" value="category_id" style="shape=partialRectangle;connectable=0;fillColor=none;top=0;left=0;bottom=0;right=0;align=left;spacingLeft=6;overflow=hidden;whiteSpace=wrap;html=1;fontSize=16;" vertex="1" parent="Agq0wgSkqwyo6o6x6c_q-81">
          <mxGeometry x="30" width="150" height="42" as="geometry">
            <mxRectangle width="150" height="42" as="alternateBounds" />
          </mxGeometry>
        </mxCell>
        <mxCell id="Agq0wgSkqwyo6o6x6c_q-84" value="" style="shape=tableRow;horizontal=0;startSize=0;swimlaneHead=0;swimlaneBody=0;fillColor=none;collapsible=0;dropTarget=0;points=[[0,0.5],[1,0.5]];portConstraint=eastwest;top=0;left=0;right=0;bottom=0;fontSize=16;" vertex="1" parent="Agq0wgSkqwyo6o6x6c_q-68">
          <mxGeometry y="258" width="180" height="42" as="geometry" />
        </mxCell>
        <mxCell id="Agq0wgSkqwyo6o6x6c_q-85" value="" style="shape=partialRectangle;connectable=0;fillColor=none;top=0;left=0;bottom=0;right=0;editable=1;overflow=hidden;whiteSpace=wrap;html=1;fontSize=16;" vertex="1" parent="Agq0wgSkqwyo6o6x6c_q-84">
          <mxGeometry width="30" height="42" as="geometry">
            <mxRectangle width="30" height="42" as="alternateBounds" />
          </mxGeometry>
        </mxCell>
        <mxCell id="Agq0wgSkqwyo6o6x6c_q-86" value="category" style="shape=partialRectangle;connectable=0;fillColor=none;top=0;left=0;bottom=0;right=0;align=left;spacingLeft=6;overflow=hidden;whiteSpace=wrap;html=1;fontSize=16;" vertex="1" parent="Agq0wgSkqwyo6o6x6c_q-84">
          <mxGeometry x="30" width="150" height="42" as="geometry">
            <mxRectangle width="150" height="42" as="alternateBounds" />
          </mxGeometry>
        </mxCell>
        <mxCell id="Agq0wgSkqwyo6o6x6c_q-87" value="" style="shape=tableRow;horizontal=0;startSize=0;swimlaneHead=0;swimlaneBody=0;fillColor=none;collapsible=0;dropTarget=0;points=[[0,0.5],[1,0.5]];portConstraint=eastwest;top=0;left=0;right=0;bottom=0;fontSize=16;" vertex="1" parent="Agq0wgSkqwyo6o6x6c_q-68">
          <mxGeometry y="300" width="180" height="42" as="geometry" />
        </mxCell>
        <mxCell id="Agq0wgSkqwyo6o6x6c_q-88" value="" style="shape=partialRectangle;connectable=0;fillColor=none;top=0;left=0;bottom=0;right=0;editable=1;overflow=hidden;whiteSpace=wrap;html=1;fontSize=16;" vertex="1" parent="Agq0wgSkqwyo6o6x6c_q-87">
          <mxGeometry width="30" height="42" as="geometry">
            <mxRectangle width="30" height="42" as="alternateBounds" />
          </mxGeometry>
        </mxCell>
        <mxCell id="Agq0wgSkqwyo6o6x6c_q-89" value="subcategory" style="shape=partialRectangle;connectable=0;fillColor=none;top=0;left=0;bottom=0;right=0;align=left;spacingLeft=6;overflow=hidden;whiteSpace=wrap;html=1;fontSize=16;" vertex="1" parent="Agq0wgSkqwyo6o6x6c_q-87">
          <mxGeometry x="30" width="150" height="42" as="geometry">
            <mxRectangle width="150" height="42" as="alternateBounds" />
          </mxGeometry>
        </mxCell>
        <mxCell id="Agq0wgSkqwyo6o6x6c_q-90" value="" style="shape=tableRow;horizontal=0;startSize=0;swimlaneHead=0;swimlaneBody=0;fillColor=none;collapsible=0;dropTarget=0;points=[[0,0.5],[1,0.5]];portConstraint=eastwest;top=0;left=0;right=0;bottom=0;fontSize=16;" vertex="1" parent="Agq0wgSkqwyo6o6x6c_q-68">
          <mxGeometry y="342" width="180" height="42" as="geometry" />
        </mxCell>
        <mxCell id="Agq0wgSkqwyo6o6x6c_q-91" value="" style="shape=partialRectangle;connectable=0;fillColor=none;top=0;left=0;bottom=0;right=0;editable=1;overflow=hidden;whiteSpace=wrap;html=1;fontSize=16;" vertex="1" parent="Agq0wgSkqwyo6o6x6c_q-90">
          <mxGeometry width="30" height="42" as="geometry">
            <mxRectangle width="30" height="42" as="alternateBounds" />
          </mxGeometry>
        </mxCell>
        <mxCell id="Agq0wgSkqwyo6o6x6c_q-92" value="maintenance" style="shape=partialRectangle;connectable=0;fillColor=none;top=0;left=0;bottom=0;right=0;align=left;spacingLeft=6;overflow=hidden;whiteSpace=wrap;html=1;fontSize=16;" vertex="1" parent="Agq0wgSkqwyo6o6x6c_q-90">
          <mxGeometry x="30" width="150" height="42" as="geometry">
            <mxRectangle width="150" height="42" as="alternateBounds" />
          </mxGeometry>
        </mxCell>
        <mxCell id="Agq0wgSkqwyo6o6x6c_q-93" value="" style="shape=tableRow;horizontal=0;startSize=0;swimlaneHead=0;swimlaneBody=0;fillColor=none;collapsible=0;dropTarget=0;points=[[0,0.5],[1,0.5]];portConstraint=eastwest;top=0;left=0;right=0;bottom=0;fontSize=16;" vertex="1" parent="Agq0wgSkqwyo6o6x6c_q-68">
          <mxGeometry y="384" width="180" height="42" as="geometry" />
        </mxCell>
        <mxCell id="Agq0wgSkqwyo6o6x6c_q-94" value="" style="shape=partialRectangle;connectable=0;fillColor=none;top=0;left=0;bottom=0;right=0;editable=1;overflow=hidden;whiteSpace=wrap;html=1;fontSize=16;" vertex="1" parent="Agq0wgSkqwyo6o6x6c_q-93">
          <mxGeometry width="30" height="42" as="geometry">
            <mxRectangle width="30" height="42" as="alternateBounds" />
          </mxGeometry>
        </mxCell>
        <mxCell id="Agq0wgSkqwyo6o6x6c_q-95" value="cost" style="shape=partialRectangle;connectable=0;fillColor=none;top=0;left=0;bottom=0;right=0;align=left;spacingLeft=6;overflow=hidden;whiteSpace=wrap;html=1;fontSize=16;" vertex="1" parent="Agq0wgSkqwyo6o6x6c_q-93">
          <mxGeometry x="30" width="150" height="42" as="geometry">
            <mxRectangle width="150" height="42" as="alternateBounds" />
          </mxGeometry>
        </mxCell>
        <mxCell id="Agq0wgSkqwyo6o6x6c_q-96" value="" style="shape=tableRow;horizontal=0;startSize=0;swimlaneHead=0;swimlaneBody=0;fillColor=none;collapsible=0;dropTarget=0;points=[[0,0.5],[1,0.5]];portConstraint=eastwest;top=0;left=0;right=0;bottom=0;fontSize=16;" vertex="1" parent="Agq0wgSkqwyo6o6x6c_q-68">
          <mxGeometry y="426" width="180" height="42" as="geometry" />
        </mxCell>
        <mxCell id="Agq0wgSkqwyo6o6x6c_q-97" value="" style="shape=partialRectangle;connectable=0;fillColor=none;top=0;left=0;bottom=0;right=0;editable=1;overflow=hidden;whiteSpace=wrap;html=1;fontSize=16;" vertex="1" parent="Agq0wgSkqwyo6o6x6c_q-96">
          <mxGeometry width="30" height="42" as="geometry">
            <mxRectangle width="30" height="42" as="alternateBounds" />
          </mxGeometry>
        </mxCell>
        <mxCell id="Agq0wgSkqwyo6o6x6c_q-98" value="product_line" style="shape=partialRectangle;connectable=0;fillColor=none;top=0;left=0;bottom=0;right=0;align=left;spacingLeft=6;overflow=hidden;whiteSpace=wrap;html=1;fontSize=16;" vertex="1" parent="Agq0wgSkqwyo6o6x6c_q-96">
          <mxGeometry x="30" width="150" height="42" as="geometry">
            <mxRectangle width="150" height="42" as="alternateBounds" />
          </mxGeometry>
        </mxCell>
        <mxCell id="Agq0wgSkqwyo6o6x6c_q-99" value="" style="shape=tableRow;horizontal=0;startSize=0;swimlaneHead=0;swimlaneBody=0;fillColor=none;collapsible=0;dropTarget=0;points=[[0,0.5],[1,0.5]];portConstraint=eastwest;top=0;left=0;right=0;bottom=0;fontSize=16;" vertex="1" parent="Agq0wgSkqwyo6o6x6c_q-68">
          <mxGeometry y="468" width="180" height="42" as="geometry" />
        </mxCell>
        <mxCell id="Agq0wgSkqwyo6o6x6c_q-100" value="" style="shape=partialRectangle;connectable=0;fillColor=none;top=0;left=0;bottom=0;right=0;editable=1;overflow=hidden;whiteSpace=wrap;html=1;fontSize=16;" vertex="1" parent="Agq0wgSkqwyo6o6x6c_q-99">
          <mxGeometry width="30" height="42" as="geometry">
            <mxRectangle width="30" height="42" as="alternateBounds" />
          </mxGeometry>
        </mxCell>
        <mxCell id="Agq0wgSkqwyo6o6x6c_q-101" value="start_date" style="shape=partialRectangle;connectable=0;fillColor=none;top=0;left=0;bottom=0;right=0;align=left;spacingLeft=6;overflow=hidden;whiteSpace=wrap;html=1;fontSize=16;" vertex="1" parent="Agq0wgSkqwyo6o6x6c_q-99">
          <mxGeometry x="30" width="150" height="42" as="geometry">
            <mxRectangle width="150" height="42" as="alternateBounds" />
          </mxGeometry>
        </mxCell>
        <mxCell id="Agq0wgSkqwyo6o6x6c_q-103" value="" style="edgeStyle=entityRelationEdgeStyle;fontSize=12;html=1;endArrow=ERzeroToMany;startArrow=ERmandOne;rounded=0;entryX=0;entryY=0.5;entryDx=0;entryDy=0;" edge="1" parent="1" source="Agq0wgSkqwyo6o6x6c_q-4" target="Agq0wgSkqwyo6o6x6c_q-44">
          <mxGeometry width="100" height="100" relative="1" as="geometry">
            <mxPoint x="230" y="230" as="sourcePoint" />
            <mxPoint x="330" y="130" as="targetPoint" />
          </mxGeometry>
        </mxCell>
        <mxCell id="Agq0wgSkqwyo6o6x6c_q-104" value="" style="edgeStyle=entityRelationEdgeStyle;fontSize=12;html=1;endArrow=ERzeroToMany;startArrow=ERmandOne;rounded=0;exitX=1;exitY=0.5;exitDx=0;exitDy=0;entryX=0;entryY=0.5;entryDx=0;entryDy=0;" edge="1" parent="1" source="Agq0wgSkqwyo6o6x6c_q-41" target="Agq0wgSkqwyo6o6x6c_q-69">
          <mxGeometry width="100" height="100" relative="1" as="geometry">
            <mxPoint x="520" y="270" as="sourcePoint" />
            <mxPoint x="620" y="170" as="targetPoint" />
          </mxGeometry>
        </mxCell>
      </root>
    </mxGraphModel>
  </diagram>
</mxfile>
